<svg width="40" height="48" viewBox="0 0 40 48" fill="none" xmlns="http://www.w3.org/2000/svg">
<path d="M26.9511 7.69202C25.2481 9.70728 22.5233 11.2968 19.7984 11.0697C19.4578 8.34485 20.7919 5.4497 22.353 3.66152C24.056 1.5895 27.0363 0.113535 29.4489 0C29.7328 2.83839 28.6258 5.62 26.9511 7.69202ZM29.4205 11.609C25.4752 11.3819 22.0975 13.8513 20.2242 13.8513C18.3225 13.8513 15.4557 11.7225 12.3335 11.7793C8.27457 11.8361 4.49952 14.1352 2.4275 17.7967C-1.83008 25.1197 1.32053 35.9623 5.43619 41.9229C7.45144 44.8749 9.86407 48.1106 13.0431 47.9971C16.0517 47.8836 17.2439 46.0386 20.877 46.0386C24.5385 46.0386 25.5887 47.9971 28.7677 47.9403C32.0602 47.8836 34.1323 44.9884 36.1475 42.0365C38.4466 38.6872 39.3833 35.423 39.44 35.2527C39.3833 35.196 33.0821 32.7833 33.0253 25.5171C32.9685 19.4429 37.9925 16.5478 38.2195 16.3775C35.3812 12.1767 30.9533 11.7225 29.4205 11.609Z" fill="black"/>
</svg>
