<svg width="49" height="48" viewBox="0 0 49 48" fill="none" xmlns="http://www.w3.org/2000/svg">
<path d="M0.39624 24.0004C0.39624 37.2563 11.1408 48 24.4001 48C37.6534 48 48.4005 37.2563 48.4005 24.0004C48.4005 10.7437 37.6534 -3.8147e-06 24.4001 -3.8147e-06C11.1408 -3.8147e-06 0.39624 10.7437 0.39624 24.0004Z" fill="url(#paint0_linear_138_191)"/>
<path fill-rule="evenodd" clip-rule="evenodd" d="M0.951104 29.1553C0.587721 27.4949 0.39624 25.77 0.39624 24.0004C0.39624 22.2439 0.584885 20.5314 0.943028 18.8822H47.8536C48.1839 20.403 48.3701 21.9776 48.3971 23.591V24.4098C48.3699 26.0362 48.1809 27.6232 47.8455 29.1553H0.951104ZM23.859 47.994C16.6936 47.8356 10.3035 44.5393 6.00845 39.425H42.7878C38.4927 44.5393 32.1032 47.8356 24.9409 47.994H23.859ZM24.8099 0.00341797C32.0424 0.124529 38.497 3.44519 42.8184 8.61173H5.97777C10.2991 3.44519 16.7544 0.124529 23.9901 0.00341797H24.8099Z" fill="black"/>
<defs>
<linearGradient id="paint0_linear_138_191" x1="0.397094" y1="24.0167" x2="48.3971" y2="24.0167" gradientUnits="userSpaceOnUse">
<stop stop-color="#FAA61A"/>
<stop offset="1" stop-color="#FFE100"/>
</linearGradient>
</defs>
</svg>
