<svg width="24" height="24" viewBox="0 0 24 24" fill="none" xmlns="http://www.w3.org/2000/svg">
<path d="M16.5171 20.105C16.2904 20.1048 16.0689 20.0369 15.881 19.9101L12.0539 17.345C12.035 17.332 12.0126 17.325 11.9897 17.325C11.9668 17.325 11.9445 17.332 11.9256 17.345L8.09853 19.9101C7.90635 20.0384 7.67968 20.1052 7.44863 20.1017C7.21757 20.0981 6.99306 20.0244 6.80491 19.8902C6.61676 19.756 6.47387 19.5678 6.39521 19.3505C6.31656 19.1333 6.30586 18.8972 6.36454 18.6737L7.62143 14.2412C7.62737 14.219 7.62665 14.1954 7.61935 14.1735C7.61206 14.1517 7.59851 14.1324 7.58038 14.1181L3.9585 11.2709C3.76784 11.1289 3.6264 10.9307 3.55404 10.7042C3.48167 10.4777 3.482 10.2343 3.55497 10.008C3.62795 9.78173 3.76992 9.58396 3.96096 9.44243C4.15201 9.30091 4.38257 9.22272 4.62029 9.21884L9.23742 9.04441C9.26012 9.04285 9.28188 9.03475 9.30009 9.0211C9.31829 9.00744 9.33216 8.98882 9.34002 8.96746L10.9304 4.64275C11.0105 4.42351 11.1561 4.2342 11.3474 4.10045C11.5388 3.96669 11.7666 3.89496 12 3.89496C12.2334 3.89496 12.4612 3.96669 12.6526 4.10045C12.8439 4.2342 12.9895 4.42351 13.0696 4.64275L14.66 8.96746C14.6678 8.98882 14.6817 9.00744 14.6999 9.0211C14.7181 9.03475 14.7399 9.04285 14.7626 9.04441L19.3797 9.21884C19.6174 9.22272 19.848 9.30091 20.039 9.44243C20.2301 9.58396 20.372 9.78173 20.445 10.008C20.518 10.2343 20.5183 10.4777 20.446 10.7042C20.3736 10.9307 20.2322 11.1289 20.0415 11.2709L16.4196 14.1181C16.4009 14.1319 16.387 14.1512 16.3796 14.1732C16.3723 14.1952 16.3719 14.219 16.3786 14.2412L17.6355 18.6737C17.6796 18.8437 17.684 19.0216 17.6482 19.1936C17.6125 19.3655 17.5377 19.527 17.4296 19.6654C17.3214 19.8038 17.1829 19.9155 17.0246 19.9917C16.8664 20.0679 16.6927 20.1067 16.5171 20.105ZM11.9923 16.2984C12.2195 16.3054 12.4393 16.3805 12.6233 16.5139L16.4504 19.079C16.4698 19.0937 16.4934 19.1018 16.5178 19.102C16.5422 19.1022 16.5659 19.0945 16.5856 19.08C16.6052 19.0656 16.6196 19.0452 16.6267 19.0219C16.6338 18.9986 16.6331 18.9736 16.6248 18.9507L15.3679 14.5183C15.3061 14.3008 15.3106 14.0699 15.381 13.8551C15.4514 13.6402 15.5844 13.4514 15.763 13.3127L19.3848 10.4655C19.4046 10.4516 19.4194 10.4317 19.427 10.4088C19.4347 10.3859 19.4348 10.3612 19.4273 10.3382C19.4198 10.3153 19.4052 10.2953 19.3856 10.2813C19.3659 10.2672 19.3423 10.2599 19.3181 10.2603L14.701 10.0858C14.4749 10.077 14.2566 10.0011 14.0739 9.86767C13.8911 9.73428 13.7523 9.54947 13.675 9.33683L12.0846 5.01212C12.0775 4.98916 12.0632 4.96909 12.0438 4.95484C12.0244 4.94059 12.001 4.9329 11.9769 4.9329C11.9529 4.9329 11.9294 4.94059 11.9101 4.95484C11.8907 4.96909 11.8764 4.98916 11.8692 5.01212L10.2942 9.3317C10.2169 9.54434 10.0781 9.72915 9.89534 9.86254C9.7126 9.99594 9.49428 10.0719 9.2682 10.0807L4.65107 10.2551C4.62693 10.2547 4.6033 10.2621 4.58366 10.2761C4.56401 10.2902 4.54938 10.3101 4.54192 10.3331C4.53445 10.3561 4.53455 10.3808 4.54219 10.4037C4.54984 10.4266 4.56462 10.4465 4.58438 10.4603L8.21139 13.3127C8.38938 13.4518 8.52197 13.6407 8.59231 13.8554C8.66265 14.0701 8.66756 14.3008 8.60641 14.5183L7.35466 18.9507C7.34719 18.9729 7.34715 18.9969 7.35456 19.0192C7.36196 19.0414 7.37641 19.0606 7.3957 19.0738C7.41428 19.0897 7.43793 19.0985 7.46239 19.0985C7.48685 19.0985 7.5105 19.0897 7.52908 19.0738L11.3562 16.5088C11.5432 16.3847 11.7627 16.3187 11.9872 16.319L11.9923 16.2984Z" fill="#FDCC0D"/>
</svg>
