<svg width="223" height="48" viewBox="0 0 223 48" fill="none" xmlns="http://www.w3.org/2000/svg">
<path fill-rule="evenodd" clip-rule="evenodd" d="M20.1781 8.75175C20.0013 12.9507 19.8019 16.773 19.5813 20.2216C19.3593 23.6688 19.0616 26.7754 18.688 29.536C18.3119 32.298 17.8147 34.7407 17.1967 36.8615C16.5786 38.9836 15.7837 40.8169 14.812 42.3642C14.1939 43.382 13.4974 44.2215 12.7251 44.8841C11.9529 45.5453 11.146 46.0762 10.3086 46.4753C9.46854 46.8731 8.64044 47.1485 7.82429 47.3042C7.00682 47.4585 6.24517 47.5357 5.53936 47.5357C4.52383 47.5357 3.67313 47.4585 2.98857 47.3042C2.30402 47.1485 1.63277 46.917 0.969482 46.607L1.96241 38.7853C2.22693 38.8745 2.49144 38.9396 2.75729 38.9836C3.02181 39.0275 3.28765 39.0501 3.55217 39.0501C4.25798 39.0501 4.9545 38.8745 5.63772 38.5179C6.32227 38.1667 6.90713 37.5693 7.39495 36.7284C8.05558 35.7585 8.6298 34.3336 9.1163 32.4537C9.60147 30.5751 10.0321 28.1776 10.407 25.26C10.7818 22.3423 11.0809 18.8632 11.3015 14.8186C11.5209 10.774 11.6751 6.05759 11.7654 0.665283H39.1209V47.0714H30.0463V8.75175H20.1781Z" fill="black"/>
<path fill-rule="evenodd" clip-rule="evenodd" d="M66.3128 27.2489H66.1148L63.2662 32.0877L51.476 47.0712H46.0448V13.9231H54.6555V29.7009L54.2581 34.2098H54.5226L57.2395 29.5027L69.1613 13.9231H74.5926V47.0712H65.9832V31.9547L66.3128 27.2489Z" fill="black"/>
<path fill-rule="evenodd" clip-rule="evenodd" d="M97.9683 21.5467V47.07H89.0931V21.5467H79.6224V13.9219H107.176V21.5467H97.9683Z" fill="black"/>
<path fill-rule="evenodd" clip-rule="evenodd" d="M126.339 7.82304C125.457 7.82304 124.617 7.8563 123.823 7.92283C123.028 7.98802 122.388 8.06651 121.902 8.15565V23.2044C122.078 23.2483 122.342 23.2935 122.697 23.3361C123.049 23.3813 123.427 23.4146 123.823 23.4359C124.219 23.4585 124.606 23.4691 124.982 23.4691H125.809C127.003 23.4691 128.184 23.36 129.353 23.1378C130.524 22.9183 131.572 22.5085 132.5 21.9125C133.428 21.3151 134.166 20.4863 134.719 19.4246C135.269 18.3642 135.547 16.9725 135.547 15.2496C135.547 13.7901 135.282 12.5861 134.752 11.6348C134.223 10.6862 133.525 9.92249 132.665 9.34907C131.805 8.77431 130.82 8.37518 129.718 8.15565C128.615 7.93347 127.486 7.82304 126.339 7.82304ZM118.955 0.299351C121.183 0.0997837 123.403 0 125.611 0C127.906 0 130.215 0.188924 132.532 0.564111C134.85 0.939297 136.939 1.691 138.791 2.81789C140.647 3.94478 142.158 5.51338 143.328 7.52369C144.497 9.53666 145.083 12.155 145.083 15.38C145.083 18.2977 144.578 20.763 143.559 22.7733C142.544 24.7849 141.199 26.4294 139.52 27.7119C137.841 28.9945 135.932 29.9231 133.792 30.4966C131.65 31.0726 129.43 31.3587 127.137 31.3587H126.073C125.587 31.3587 125.082 31.3467 124.55 31.3254C124.021 31.3028 123.501 31.2709 122.994 31.227C122.486 31.1831 122.12 31.1378 121.901 31.0939V47.0713H112.828V1.12689C114.681 0.774321 116.725 0.497588 118.955 0.299351Z" fill="#FF4C00"/>
<path fill-rule="evenodd" clip-rule="evenodd" d="M162.356 19.7532C159.664 19.8317 158.407 20.5102 157.282 21.8327C156.166 23.1485 155.521 24.9446 155.304 27.1984L167.672 27.3141C167.847 24.9286 167.633 23.086 166.734 21.8047C165.835 20.5222 164.289 19.696 162.356 19.7532ZM169.227 46.905C166.955 47.6354 164.536 48 161.974 48C156.631 48 152.724 46.442 150.251 43.3248C147.778 40.2088 146.544 35.9328 146.544 30.4966C146.544 24.6639 147.934 20.2867 150.715 17.3704C153.497 14.4527 157.405 12.9945 162.438 12.9945C164.116 12.9945 165.751 13.2154 167.341 13.6571C168.93 14.0988 170.342 14.8292 171.579 15.8443C172.817 16.8621 173.81 18.2325 174.56 19.9554C175.311 21.6783 175.687 23.8244 175.687 26.3881C175.687 27.3141 175.631 28.3093 175.521 29.3697C175.41 30.43 175.245 31.5343 175.025 32.6852H155.061C155.194 35.4698 156.066 37.5679 157.365 38.9822C158.662 40.3978 160.765 41.1029 163.668 41.1029C165.47 41.1029 167.063 40.7517 168.52 40.2754C170.335 39.682 172.045 38.8731 172.045 38.8731L174.626 44.2201C173.301 45.2805 171.501 46.1759 169.227 46.905Z" fill="#FF4C00"/>
<path fill-rule="evenodd" clip-rule="evenodd" d="M203.678 20.3279C203.678 20.3279 201.042 19.7918 198.965 19.7918C193.054 19.7918 189.217 23.1791 189.217 30.6549C189.217 37.6677 192.144 41.1322 198.317 41.1322C200.329 41.1322 204.208 40.5933 204.208 40.5933L205.395 46.5844C203.773 47.1019 200.588 47.8842 196.756 47.8842C184.74 47.8842 180.322 39.1072 180.322 30.1999C180.322 21.2287 185.518 13.1661 197.471 13.1661C199.679 13.1661 202.404 13.4256 204.94 14.0762L203.678 20.3279Z" fill="#FF4C00"/>
<path fill-rule="evenodd" clip-rule="evenodd" d="M217.281 23.3734C214.58 23.3734 212.393 21.1848 212.393 18.4826C212.393 15.7805 214.58 13.5906 217.281 13.5906C219.978 13.5906 222.167 15.7805 222.167 18.4826C222.167 21.1848 219.978 23.3734 217.281 23.3734Z" fill="#FF4C00"/>
<path fill-rule="evenodd" clip-rule="evenodd" d="M222.167 42.6715C222.167 45.3723 219.978 47.5622 217.281 47.5622C214.58 47.5622 212.393 45.3723 212.393 42.6715C212.393 39.968 214.58 37.7781 217.281 37.7781C219.978 37.7781 222.167 39.9693 222.167 42.6715Z" fill="#FF4C00"/>
</svg>
