<svg width="225" height="56" viewBox="0 0 225 56" fill="none" xmlns="http://www.w3.org/2000/svg">
<path d="M43.9159 13.641C42.9545 13.1487 41.9523 12.7385 40.9091 12.3897V37.0667C38.5773 36.2256 36.1841 35.7949 33.75 35.7949C29.8636 35.7949 26.0182 36.9026 22.5 39.0359V14.2154C19.1864 12.3077 15.3614 11.1795 11.25 11.1795C7.58864 11.1795 4.13182 12.0821 1.08409 13.641C0.409091 13.9692 0 14.6872 0 15.4462V40.2256C0 41.4154 0.961364 42.2564 2.04545 42.2564C2.37273 42.2564 2.7 42.1744 3.02727 42.0103C5.50227 40.718 8.28409 39.8974 11.25 39.8974C15.4841 39.8974 19.3909 41.5795 22.5 44C25.6091 41.5795 29.5159 39.8974 33.75 39.8974C36.7159 39.8974 39.4977 40.718 41.9727 42.0308C42.3 42.1949 42.6273 42.2769 42.9545 42.2769C44.0182 42.2769 45 41.4359 45 40.2462V15.4462C45 14.6872 44.5909 13.9692 43.9159 13.641ZM18.4091 37.0667C16.0773 36.2256 13.6841 35.7949 11.25 35.7949C8.81591 35.7949 6.42273 36.2256 4.09091 37.0667V16.7385C6.36136 15.7744 8.75455 15.2821 11.25 15.2821C13.7045 15.2821 16.1386 15.7949 18.4091 16.759V37.0667ZM36.8182 4L26.5909 14.2564V33.7436L36.8182 24.5128V4Z" fill="#C5CEE0"/>
<path d="M47.72 42V14H58.96C61.8667 14 64.08 14.68 65.6 16.04C67.1467 17.3733 67.92 19.0933 67.92 21.2C67.92 22.96 67.44 24.3733 66.48 25.44C65.5467 26.48 64.4 27.1867 63.04 27.56C64.64 27.88 65.96 28.68 67 29.96C68.04 31.2133 68.56 32.68 68.56 34.36C68.56 36.5733 67.76 38.4 66.16 39.84C64.56 41.28 62.2933 42 59.36 42H47.72ZM52.84 25.76H58.2C59.64 25.76 60.7467 25.4267 61.52 24.76C62.2933 24.0933 62.68 23.1467 62.68 21.92C62.68 20.7467 62.2933 19.8267 61.52 19.16C60.7733 18.4667 59.64 18.12 58.12 18.12H52.84V25.76ZM52.84 37.84H58.56C60.08 37.84 61.2533 37.4933 62.08 36.8C62.9333 36.08 63.36 35.08 63.36 33.8C63.36 32.4933 62.92 31.4667 62.04 30.72C61.16 29.9733 59.9733 29.6 58.48 29.6H52.84V37.84ZM81.5544 42.48C79.6344 42.48 77.901 42.04 76.3544 41.16C74.8344 40.28 73.621 39.0667 72.7144 37.52C71.8344 35.9467 71.3944 34.1333 71.3944 32.08C71.3944 30.0267 71.8477 28.2267 72.7544 26.68C73.661 25.1067 74.8744 23.88 76.3944 23C77.941 22.12 79.6744 21.68 81.5944 21.68C83.4877 21.68 85.1944 22.12 86.7144 23C88.261 23.88 89.4744 25.1067 90.3544 26.68C91.261 28.2267 91.7144 30.0267 91.7144 32.08C91.7144 34.1333 91.261 35.9467 90.3544 37.52C89.4744 39.0667 88.261 40.28 86.7144 41.16C85.1677 42.04 83.4477 42.48 81.5544 42.48ZM81.5544 38.04C82.8877 38.04 84.0477 37.5467 85.0344 36.56C86.021 35.5467 86.5144 34.0533 86.5144 32.08C86.5144 30.1067 86.021 28.6267 85.0344 27.64C84.0477 26.6267 82.901 26.12 81.5944 26.12C80.2344 26.12 79.061 26.6267 78.0744 27.64C77.1144 28.6267 76.6344 30.1067 76.6344 32.08C76.6344 34.0533 77.1144 35.5467 78.0744 36.56C79.061 37.5467 80.221 38.04 81.5544 38.04ZM105.012 42.48C103.092 42.48 101.359 42.04 99.8122 41.16C98.2922 40.28 97.0789 39.0667 96.1722 37.52C95.2922 35.9467 94.8522 34.1333 94.8522 32.08C94.8522 30.0267 95.3055 28.2267 96.2122 26.68C97.1189 25.1067 98.3322 23.88 99.8522 23C101.399 22.12 103.132 21.68 105.052 21.68C106.946 21.68 108.652 22.12 110.172 23C111.719 23.88 112.932 25.1067 113.812 26.68C114.719 28.2267 115.172 30.0267 115.172 32.08C115.172 34.1333 114.719 35.9467 113.812 37.52C112.932 39.0667 111.719 40.28 110.172 41.16C108.626 42.04 106.906 42.48 105.012 42.48ZM105.012 38.04C106.346 38.04 107.506 37.5467 108.492 36.56C109.479 35.5467 109.972 34.0533 109.972 32.08C109.972 30.1067 109.479 28.6267 108.492 27.64C107.506 26.6267 106.359 26.12 105.052 26.12C103.692 26.12 102.519 26.6267 101.532 27.64C100.572 28.6267 100.092 30.1067 100.092 32.08C100.092 34.0533 100.572 35.5467 101.532 36.56C102.519 37.5467 103.679 38.04 105.012 38.04ZM118.95 42V13.2H124.07V30.2L131.11 22.16H137.19L129.07 31.2L138.51 42H132.11L124.07 32.04V42H118.95ZM152.644 42.48C151.151 42.48 149.844 42.2 148.724 41.64C147.604 41.08 146.698 40.2933 146.004 39.28L145.444 42H140.884V13.2H146.004V25C146.644 24.12 147.484 23.3467 148.524 22.68C149.591 22.0133 150.964 21.68 152.644 21.68C154.511 21.68 156.178 22.1333 157.644 23.04C159.111 23.9467 160.271 25.1867 161.124 26.76C161.978 28.3333 162.404 30.12 162.404 32.12C162.404 34.12 161.978 35.9067 161.124 37.48C160.271 39.0267 159.111 40.2533 157.644 41.16C156.178 42.04 154.511 42.48 152.644 42.48ZM151.564 38C153.191 38 154.538 37.4533 155.604 36.36C156.671 35.2667 157.204 33.8533 157.204 32.12C157.204 30.3867 156.671 28.96 155.604 27.84C154.538 26.72 153.191 26.16 151.564 26.16C149.911 26.16 148.551 26.72 147.484 27.84C146.444 28.9333 145.924 30.3467 145.924 32.08C145.924 33.8133 146.444 35.24 147.484 36.36C148.551 37.4533 149.911 38 151.564 38ZM166.861 50.8L171.461 40.68H170.261L162.541 22.16H168.101L173.661 36.12L179.461 22.16H184.901L172.301 50.8H166.861ZM196.288 42C194.208 42 192.542 41.4933 191.288 40.48C190.035 39.4667 189.408 37.6667 189.408 35.08V26.44H186.008V22.16H189.408L190.008 16.84H194.528V22.16H199.888V26.44H194.528V35.12C194.528 36.08 194.728 36.7467 195.128 37.12C195.555 37.4667 196.275 37.64 197.288 37.64H199.768V42H196.288ZM212.617 42.48C210.617 42.48 208.843 42.0533 207.297 41.2C205.75 40.3467 204.537 39.1467 203.657 37.6C202.777 36.0533 202.337 34.2667 202.337 32.24C202.337 30.1867 202.763 28.36 203.617 26.76C204.497 25.16 205.697 23.92 207.217 23.04C208.763 22.1333 210.577 21.68 212.657 21.68C214.603 21.68 216.323 22.1067 217.817 22.96C219.31 23.8133 220.47 24.9867 221.297 26.48C222.15 27.9467 222.577 29.5867 222.577 31.4C222.577 31.6933 222.563 32 222.537 32.32C222.537 32.64 222.523 32.9733 222.497 33.32H207.417C207.523 34.8667 208.057 36.08 209.017 36.96C210.003 37.84 211.19 38.28 212.577 38.28C213.617 38.28 214.483 38.0533 215.177 37.6C215.897 37.12 216.43 36.5067 216.777 35.76H221.977C221.603 37.0133 220.977 38.16 220.097 39.2C219.243 40.2133 218.177 41.0133 216.897 41.6C215.643 42.1867 214.217 42.48 212.617 42.48ZM212.657 25.84C211.403 25.84 210.297 26.2 209.337 26.92C208.377 27.6133 207.763 28.68 207.497 30.12H217.377C217.297 28.8133 216.817 27.7733 215.937 27C215.057 26.2267 213.963 25.84 212.657 25.84Z" fill="#F7F9FC"/>
</svg>
