<svg width="78" height="48" viewBox="0 0 78 48" fill="none" xmlns="http://www.w3.org/2000/svg">
<path d="M49.4617 5.13281H28.4617V42.8704H49.4617V5.13281Z" fill="#FF5F00"/>
<path d="M29.7963 24C29.793 20.3656 30.6166 16.7781 32.2047 13.509C33.7928 10.24 36.1039 7.37507 38.9629 5.13121C35.4224 2.3483 31.1704 0.617653 26.6928 0.137071C22.2152 -0.343511 17.6928 0.445348 13.6424 2.41352C9.59192 4.38169 6.17694 7.44976 3.78776 11.267C1.39858 15.0843 0.131592 19.4967 0.131592 24C0.131592 28.5033 1.39858 32.9157 3.78776 36.733C6.17694 40.5502 9.59192 43.6183 13.6424 45.5865C17.6928 47.5547 22.2152 48.3435 26.6928 47.8629C31.1704 47.3823 35.4224 45.6517 38.9629 42.8688C36.1039 40.6249 33.7929 37.76 32.2047 34.491C30.6166 31.2219 29.793 27.6344 29.7963 24Z" fill="#EB001B"/>
<path d="M77.7919 24C77.792 28.5032 76.5252 32.9156 74.1361 36.7329C71.7471 40.5502 68.3322 43.6182 64.2819 45.5864C60.2315 47.5546 55.7091 48.3435 51.2316 47.8629C46.7541 47.3824 42.5021 45.6517 38.9617 42.8688C41.8182 40.6227 44.1275 37.7573 45.7154 34.4888C47.3032 31.2202 48.1283 27.6338 48.1283 24C48.1283 20.3662 47.3032 16.7798 45.7154 13.5112C44.1275 10.2427 41.8182 7.37733 38.9617 5.1312C42.5021 2.34829 46.7541 0.61764 51.2316 0.137064C55.7091 -0.343511 60.2315 0.445383 64.2819 2.41357C68.3322 4.38176 71.7471 7.44983 74.1361 11.2671C76.5252 15.0843 77.792 19.4968 77.7919 24Z" fill="#F79E1B"/>
<path d="M75.5023 38.871V38.0984H75.8138V37.941H75.0204V38.0984H75.3321V38.871H75.5023ZM77.0426 38.871V37.9395H76.7994L76.5197 38.5802L76.2399 37.9395H75.9965V38.871H76.1683V38.1683L76.4306 38.7741H76.6087L76.871 38.1668V38.871H77.0426Z" fill="#F79E1B"/>
</svg>
