<svg width="49" height="48" viewBox="0 0 49 48" fill="none" xmlns="http://www.w3.org/2000/svg">
<path d="M19.7988 19.7886C18.1423 19.7886 16.7972 18.4452 16.7972 16.7906C16.7972 15.1323 18.1423 13.789 19.7988 13.789C21.4553 13.789 22.7967 15.1323 22.7967 16.7906C22.7967 18.4452 21.4553 19.7886 19.7988 19.7886ZM24.3995 0C11.1422 0 0.401184 10.7429 0.401184 23.9983C0.401184 35.5009 8.49634 45.1135 19.2967 47.4537V25.9178L19.2982 25.9164C19.3223 24.8769 20.1505 24.0394 21.1807 24.0005V23.999H22.1794H24.212C24.3528 23.999 24.4676 23.8878 24.4751 23.7489L24.4765 0.00429864L24.3995 0ZM40.937 37.0899C39.2824 37.0899 37.9372 35.7466 37.9372 34.0883C37.9372 32.4355 39.2824 31.0922 40.937 31.0922C42.5916 31.0922 43.9368 32.4355 43.9368 34.0883C43.9368 35.7466 42.5916 37.0899 40.937 37.0899ZM33.9054 37.0899C32.2508 37.0899 30.9075 35.7466 30.9075 34.0883C30.9075 32.4355 32.2508 31.0922 33.9054 31.0922C35.5619 31.0922 36.9052 32.4355 36.9052 34.0883C36.9052 35.7466 35.5619 37.0899 33.9054 37.0899ZM26.8701 37.0899C25.2155 37.0899 23.8684 35.7466 23.8684 34.0883C23.8684 32.4355 25.2155 31.0922 26.8701 31.0922C28.5284 31.0922 29.8717 32.4355 29.8717 34.0883C29.8717 35.7466 28.5284 37.0899 26.8701 37.0899ZM27.3611 0.180869V23.9976V24.924V24.9408L27.3552 24.9467C27.3463 26.0176 26.4732 26.8829 25.3985 26.8829H24.4758H22.4451C22.2968 26.8829 22.1783 27.0015 22.1783 27.1479V47.8962C22.9101 47.9629 23.6476 48 24.398 48C37.6534 48 48.3963 37.2534 48.3963 23.998C48.3963 11.7487 39.2172 1.64137 27.3607 0.181314" fill="#00985F"/>
</svg>
