<svg width="176" height="48" viewBox="0 0 176 48" fill="none" xmlns="http://www.w3.org/2000/svg">
<path fill-rule="evenodd" clip-rule="evenodd" d="M16.2725 0.00819097C17.8446 -0.00121387 22.5167 -0.422014 24.4958 6.25724C25.8289 10.7565 27.9524 18.1264 30.8664 28.367H32.0532C35.1782 17.5706 37.3249 10.2007 38.4933 6.25724C40.493 -0.49159 45.4921 0.00832322 47.4918 0.00832322L62.9196 0.00834246V47.9999H47.1951V19.7177H46.1407L37.3751 47.9999H25.5445L16.7789 19.6967H15.7244V47.9999H0V0.00834246L16.2725 0.00819097ZM85.4995 0.00834246V28.3116H86.7539L97.4165 5.03804C99.4863 0.406526 103.898 0.00834246 103.898 0.00834246H119.114V48H103.061V19.6967H101.807L91.3535 42.9703C89.2837 47.5809 84.6633 48 84.6633 48H69.4467V0.00834246H85.4995ZM174.6 22.8143C172.361 29.1597 165.329 33.704 157.543 33.704H140.709V48H125.444V22.8143H174.6Z" fill="#0F754E"/>
<path fill-rule="evenodd" clip-rule="evenodd" d="M158.28 0.00830078H124.643C125.444 10.6929 134.645 19.8396 144.17 19.8396H175.661C177.478 10.9594 171.222 0.00830078 158.28 0.00830078Z" fill="url(#paint0_linear_138_214)"/>
<defs>
<linearGradient id="paint0_linear_138_214" x1="175.969" y1="12.483" x2="124.643" y2="12.483" gradientUnits="userSpaceOnUse">
<stop stop-color="#1F5CD7"/>
<stop offset="1" stop-color="#02AEFF"/>
</linearGradient>
</defs>
</svg>
