<svg width="24" height="24" viewBox="0 0 24 24" fill="none" xmlns="http://www.w3.org/2000/svg">
<path d="M5.935 12.7341C5.42417 13.7383 6.00417 14.2183 7.3275 15.0383C8.45249 15.7333 10.0067 15.9875 11.005 16.0891C10.5958 16.4824 12.4708 14.6791 7.07083 19.8733C5.92583 20.9708 7.76916 22.7316 8.91332 21.6574L12.0108 18.6699C13.1966 19.8108 14.3333 20.9041 15.1083 21.6616C16.2533 22.7399 18.0958 20.9941 16.9633 19.8774C16.8783 19.7966 12.7658 15.8516 13.0166 16.0933C14.0275 15.9916 15.5583 15.7225 16.67 15.0425L16.6691 15.0416C17.9925 14.2175 18.5725 13.7383 18.0691 12.7341C17.765 12.1641 16.945 11.6875 15.8533 12.5116C15.8533 12.5116 14.3791 13.6408 12.0016 13.6408C9.62332 13.6408 8.14999 12.5116 8.14999 12.5116C7.05916 11.6833 6.23583 12.1641 5.935 12.7341Z" fill="#2E3A59"/>
<path d="M12 12.1183C14.8983 12.1183 17.265 9.85331 17.265 7.06498C17.265 4.26499 14.8983 2 12 2C9.10082 2 6.73416 4.26499 6.73416 7.06498C6.73416 9.85331 9.10082 12.1183 12 12.1183ZM12 4.56582C13.4241 4.56582 14.5858 5.68332 14.5858 7.06498C14.5858 8.43498 13.4241 9.55247 12 9.55247C10.5758 9.55247 9.41416 8.43498 9.41416 7.06498C9.41332 5.68249 10.575 4.56582 12 4.56582Z" fill="#2E3A59"/>
</svg>
