<svg width="181" height="48" viewBox="0 0 181 48" fill="none" xmlns="http://www.w3.org/2000/svg">
<path d="M21.6158 0.00195312H7.60501C6.64624 0.00195312 5.83086 0.698499 5.68131 1.64498L0.0147087 37.5724C-0.0979678 38.2812 0.451072 38.9204 1.17015 38.9204H7.85904C8.81781 38.9204 9.63319 38.2239 9.78274 37.2753L11.311 27.5852C11.4585 26.6366 12.276 25.9401 13.2327 25.9401H17.668C26.8973 25.9401 32.2238 21.474 33.6148 12.6238C34.2417 8.7518 33.6415 5.70953 31.8284 3.57892C29.8371 1.23935 26.3052 0.00195312 21.6158 0.00195312ZM23.2322 13.1236C22.466 18.1511 18.6248 18.1511 14.9105 18.1511H12.7963L14.2796 8.76204C14.3677 8.19456 14.8593 7.77663 15.433 7.77663H16.402C18.9321 7.77663 21.3188 7.77663 22.5521 9.21889C23.2875 10.0793 23.5129 11.3577 23.2322 13.1236Z" fill="#253B80"/>
<path d="M63.4967 12.9617H56.7873C56.2157 12.9617 55.722 13.3796 55.6339 13.9471L55.3368 15.8237L54.8677 15.1435C53.4152 13.0354 50.1762 12.3307 46.9435 12.3307C39.5293 12.3307 33.1969 17.9461 31.9636 25.8232C31.3224 29.7525 32.234 33.5098 34.463 36.13C36.5076 38.5392 39.433 39.5431 42.9137 39.5431C48.8876 39.5431 52.2003 35.7018 52.2003 35.7018L51.9012 37.5661C51.7885 38.2791 52.3376 38.9182 53.0526 38.9182H59.0961C60.0569 38.9182 60.8682 38.2217 61.0198 37.2732L64.6459 14.3097C64.7607 13.6029 64.2137 12.9617 63.4967 12.9617ZM54.1445 26.0199C53.4971 29.8529 50.4549 32.426 46.5747 32.426C44.6264 32.426 43.0694 31.8012 42.0697 30.6171C41.0781 29.4411 40.7012 27.7674 41.0167 25.9031C41.621 22.1028 44.7145 19.4457 48.5353 19.4457C50.4405 19.4457 51.9893 20.0787 53.0095 21.2731C54.0318 22.4798 54.4375 24.1638 54.1445 26.0199Z" fill="#253B80"/>
<path d="M99.2295 12.9617H92.4873C91.844 12.9617 91.2397 13.2813 90.875 13.816L81.5761 27.5133L77.6345 14.3507C77.3866 13.5271 76.6265 12.9617 75.7661 12.9617H69.1407C68.3356 12.9617 67.7763 13.7484 68.0324 14.5064L75.4588 36.3L68.477 46.1562C67.9279 46.9326 68.4811 48 69.4296 48H76.1635C76.8027 48 77.4009 47.6886 77.7636 47.1641L100.188 14.7952C100.725 14.0208 100.174 12.9617 99.2295 12.9617Z" fill="#253B80"/>
<path d="M121.552 0.00195312H107.539C106.582 0.00195312 105.767 0.698499 105.617 1.64498L99.9506 37.5724C99.8379 38.2812 100.387 38.9204 101.102 38.9204H108.293C108.961 38.9204 109.532 38.4328 109.637 37.7691L111.245 27.5852C111.392 26.6366 112.21 25.9401 113.167 25.9401H117.6C126.831 25.9401 132.156 21.474 133.549 12.6238C134.178 8.7518 133.573 5.70953 131.76 3.57892C129.771 1.23935 126.241 0.00195312 121.552 0.00195312ZM123.168 13.1236C122.404 18.1511 118.563 18.1511 114.846 18.1511H112.734L114.22 8.76204C114.308 8.19456 114.795 7.77663 115.371 7.77663H116.34C118.868 7.77663 121.257 7.77663 122.49 9.21889C123.225 10.0793 123.449 11.3577 123.168 13.1236Z" fill="#179BD7"/>
<path d="M163.43 12.9617H156.725C156.15 12.9617 155.66 13.3796 155.574 13.9471L155.277 15.8237L154.806 15.1435C153.353 13.0354 150.116 12.3307 146.883 12.3307C139.469 12.3307 133.139 17.9461 131.906 25.8232C131.266 29.7525 132.174 33.5098 134.403 36.13C136.452 38.5392 139.373 39.5431 142.854 39.5431C148.828 39.5431 152.14 35.7018 152.14 35.7018L151.841 37.5661C151.729 38.2791 152.278 38.9182 152.997 38.9182H159.038C159.995 38.9182 160.81 38.2217 160.96 37.2732L164.588 14.3097C164.699 13.6029 164.15 12.9617 163.43 12.9617ZM154.078 26.0199C153.435 29.8529 150.389 32.426 146.509 32.426C144.564 32.426 143.003 31.8012 142.004 30.6171C141.012 29.4411 140.639 27.7674 140.95 25.9031C141.559 22.1028 144.648 19.4457 148.469 19.4457C150.374 19.4457 151.923 20.0787 152.943 21.2731C153.97 22.4798 154.375 24.1638 154.078 26.0199Z" fill="#179BD7"/>
<path d="M171.34 0.987456L165.59 37.5725C165.477 38.2813 166.026 38.9205 166.741 38.9205H172.522C173.483 38.9205 174.299 38.224 174.446 37.2754L180.117 1.35007C180.23 0.641232 179.68 0 178.966 0H172.492C171.92 0.00204866 171.428 0.419976 171.34 0.987456Z" fill="#179BD7"/>
</svg>
