<svg width="132" height="48" viewBox="0 0 132 48" fill="none" xmlns="http://www.w3.org/2000/svg">
<path d="M87.4648 10.1523V32.5406C87.4648 32.8953 87.1988 33.1613 86.8441 33.1613H82.2778C81.9231 33.1613 81.6571 32.8953 81.6571 32.5406V10.1523C81.6571 9.79766 81.9231 9.53166 82.2778 9.53166H86.8441C87.1988 9.57599 87.4648 9.84199 87.4648 10.1523ZM123.109 9.576H118.01C117.744 9.576 117.523 9.75333 117.434 10.0193L113.4 23.275L108.966 10.0193C108.878 9.75333 108.656 9.62033 108.39 9.62033H104.799C104.533 9.62033 104.311 9.79766 104.223 10.0193L99.7895 23.275L95.7551 10.0193C95.6665 9.75333 95.4448 9.576 95.1788 9.576H90.0805C89.9031 9.576 89.6815 9.66467 89.5928 9.842C89.4598 10.0193 89.4598 10.1967 89.5041 10.374L97.0408 32.8066C97.1295 33.0726 97.3511 33.2056 97.6171 33.2056H101.696C101.962 33.2056 102.183 33.0283 102.272 32.8066L106.661 19.7283L111.05 32.8066C111.139 33.0726 111.36 33.2056 111.626 33.2056H115.705C115.971 33.2056 116.193 33.0283 116.281 32.8066L123.818 10.374C123.862 10.1967 123.862 9.975 123.729 9.842C123.508 9.66467 123.33 9.576 123.109 9.576ZM130.823 9.576H126.256C125.902 9.576 125.636 9.84199 125.636 10.1967V32.585C125.636 32.9396 125.902 33.2056 126.256 33.2056H130.823C131.177 33.2056 131.443 32.9396 131.443 32.585V10.1967C131.443 9.84199 131.133 9.576 130.823 9.576ZM79.0415 32.4076C79.3075 32.718 79.0858 33.1613 78.6868 33.1613H73.1008C72.8792 33.1613 72.6575 33.0727 72.5245 32.8953L71.5935 31.7426C69.6428 32.984 67.3375 33.7376 64.8992 33.7376C58.0718 33.7376 52.5302 28.196 52.5302 21.3687C52.5302 14.5413 58.0718 8.99966 64.8992 8.99966C71.7265 8.99966 77.2681 14.5413 77.2681 21.3687C77.2681 23.807 76.5588 26.1123 75.3175 28.063L79.0415 32.4076ZM67.9138 27.4423L65.4755 24.472C65.2095 24.1617 65.4311 23.674 65.8301 23.674H70.9728C71.2388 22.9646 71.3718 22.1667 71.3718 21.3687C71.3718 17.689 68.6231 14.497 64.8548 14.497C61.0865 14.497 58.3378 17.689 58.3378 21.3687C58.3378 25.0483 61.0865 28.196 64.8548 28.196C65.9632 28.2403 66.9828 27.93 67.9138 27.4423ZM38.3878 32.319C38.5208 33.25 38.2105 33.649 37.9445 33.649C37.6342 33.649 37.2352 33.25 36.7475 32.5406C36.2598 31.787 36.0825 30.9446 36.3485 30.5456C36.4815 30.2796 36.8362 30.1466 37.2352 30.2796C37.9888 30.5456 38.2992 31.7426 38.3878 32.319ZM33.9988 34.314C34.9298 35.112 35.2402 36.0873 34.7525 36.7523C34.4865 37.107 34.0432 37.3286 33.4668 37.3286C32.9348 37.3286 32.4028 37.1513 32.0038 36.7966C31.1615 36.043 30.8955 34.8016 31.4718 34.1366C31.6935 33.8706 32.0482 33.7376 32.4915 33.7376C32.9792 33.7376 33.5112 33.9593 33.9988 34.314ZM32.4028 42.0723C36.4815 42.0723 40.9148 43.491 45.8358 47.8356C46.3235 48.279 46.9885 47.747 46.5452 47.1706C41.7128 41.097 37.2795 39.9443 32.8462 38.969C27.3932 37.772 24.6002 34.713 22.6495 31.3437C22.2505 30.6787 22.0732 30.8116 22.0732 31.654C22.0288 32.718 22.1175 34.0923 22.3392 35.4666C22.1175 35.4666 21.8958 35.4666 21.6742 35.4666C13.9158 35.4666 7.57618 29.1713 7.57618 21.3687C7.57618 13.6103 13.8715 7.27066 21.6742 7.27066C29.4768 7.27066 35.7722 13.566 35.7722 21.3687C35.7722 21.9007 35.7278 22.477 35.6835 23.009C34.6638 22.8316 32.6245 22.7873 31.2058 22.9203C30.6738 22.9647 30.7625 23.2307 31.1615 23.275C35.8165 24.1173 39.0085 26.999 39.7622 32.2303C39.7622 32.3633 39.9395 32.4076 39.9838 32.2746C41.8902 29.0826 42.9985 25.3587 42.9985 21.3243C42.9985 9.576 33.4668 0 21.6742 0C9.88152 0 0.349854 9.53166 0.349854 21.3243C0.349854 33.0726 9.88152 42.6486 21.6742 42.6486C24.7775 42.693 27.8808 42.0723 32.4028 42.0723Z" fill="#FF8C00"/>
</svg>
