<svg width="24" height="24" viewBox="0 0 24 24" fill="none" xmlns="http://www.w3.org/2000/svg">
<path d="M16.3725 12.1213C17.9412 12.1213 19 13.2132 19 14.8309C19 16.2868 17.7843 17.5 16.1373 17.5C14.3333 17.5 13 16.0441 13 13.8199C13 8.76471 16.6863 6.74265 19 6.5L19 8.72426C17.4314 9.00735 15.6667 10.5846 15.5882 12.3235C15.6667 12.2831 15.9804 12.1213 16.3725 12.1213Z" fill="#2E3A59"/>
<path d="M8.37255 12.1213C9.94118 12.1213 11 13.2132 11 14.8309C11 16.2868 9.78431 17.5 8.13725 17.5C6.33333 17.5 5 16.0441 5 13.8199C5 8.76471 8.68627 6.74265 11 6.5V8.72426C9.43137 9.00735 7.66667 10.5846 7.58824 12.3235C7.66667 12.2831 7.98039 12.1213 8.37255 12.1213Z" fill="#2E3A59"/>
</svg>
