<svg width="24" height="24" viewBox="0 0 24 24" fill="none" xmlns="http://www.w3.org/2000/svg">
<path d="M7.62745 11.8787C6.05882 11.8787 5 10.7868 5 9.16912C5 7.71324 6.21569 6.5 7.86274 6.5C9.66667 6.5 11 7.95588 11 10.1801C11 15.2353 7.31373 17.2574 5 17.5V15.2757C6.56863 14.9926 8.33333 13.4154 8.41176 11.6765C8.33333 11.7169 8.01961 11.8787 7.62745 11.8787Z" fill="#2E3A59"/>
<path d="M15.6274 11.8787C14.0588 11.8787 13 10.7868 13 9.16912C13 7.71324 14.2157 6.5 15.8627 6.5C17.6667 6.5 19 7.95588 19 10.1801C19 15.2353 15.3137 17.2574 13 17.5V15.2757C14.5686 14.9926 16.3333 13.4154 16.4118 11.6765C16.3333 11.7169 16.0196 11.8787 15.6274 11.8787Z" fill="#2E3A59"/>
</svg>
