<svg width="128" height="48" viewBox="0 0 128 48" fill="none" xmlns="http://www.w3.org/2000/svg">
<path d="M0 16.9193V23.8589L18.678 21.7918V14.2984L0 16.9193ZM5.97991 24.2649V48H12.8088V23.5636L5.97991 24.2649ZM21.225 13.9293V48H28.423V12.9327L21.225 13.9293ZM29.7888 12.7481V20.5736L40.1983 19.4293V11.2716L29.7888 12.7481ZM29.7888 26.4059V34.3791L36.6177 34.01V25.8153L29.7888 26.4059ZM29.7888 40.1375V48H40.1983V39.8053L29.7888 40.1375ZM67.1078 7.46953V48H76.5576V6.14066L67.1078 7.46953ZM78.3294 5.88227V15.2213L92.0979 13.7078V3.96279L78.3294 5.88227ZM78.3294 22.2347V31.7214L87.3731 31.2415V21.4596L78.3294 22.2347ZM78.3294 38.661V48H92.0979V38.255L78.3294 38.661ZM42.9298 10.8655V48H51.1614V9.72122L42.9298 10.8655ZM52.7118 39.4362V48H64.6347V39.0671L52.7118 39.4362ZM122.994 3.48292C120.004 0.677536 115.612 -0.503679 110.85 0.197668V10.5333C112.806 10.4226 114.356 11.1608 115.058 12.6004C116.165 14.889 115.021 18.322 112.326 21.4965C108.155 26.4059 97.1181 36.4462 97.1181 36.4462L112.991 35.9295C122.699 26.4428 126.169 20.7213 126.796 13.5233C127.128 9.72122 125.726 6.06683 122.994 3.48292ZM127.35 48V37.1845L95.1617 38.1442L127.35 48ZM95.1617 38.1442V48H127.35L95.1617 38.1442ZM109.004 0.456059C99.6651 2.44936 95.051 9.31518 95.6047 20.5367L105.571 19.6508C105.128 13.3018 107.048 11.8253 109.004 10.9763V0.456059Z" fill="#141414"/>
</svg>
