<svg width="149" height="48" viewBox="0 0 149 48" fill="none" xmlns="http://www.w3.org/2000/svg">
<path d="M56.3209 0.825223L36.8596 47.2436H24.2063L14.6476 10.2464C14.0974 7.97708 13.5473 7.15186 11.8281 6.18911C8.93984 4.60745 4.19484 3.16332 0 2.26933L0.275088 0.893975H20.6992C23.3124 0.893975 25.6505 2.61319 26.2006 5.63898L31.2894 32.4585L43.8052 0.893975H56.3209V0.825223ZM106.04 32.1146C106.109 19.8739 89.1232 19.1863 89.192 13.7536C89.2608 12.1032 90.8425 10.3152 94.2808 9.83381C96 9.6275 100.745 9.4212 106.109 11.8968L108.241 2.06304C105.352 1.03152 101.639 0 97.0316 0C85.2035 0 76.8138 6.32664 76.745 15.3352C76.6763 22.0057 82.7278 25.7192 87.2665 27.9886C91.9427 30.2579 93.5244 31.702 93.5244 33.7651C93.4556 36.8596 89.8109 38.235 86.3725 38.3037C80.321 38.3725 76.8138 36.6533 74.0631 35.3467L71.8625 45.5244C74.682 46.831 79.8396 47.9312 85.2035 48C97.7192 47.9312 105.971 41.7421 106.04 32.1146ZM137.33 47.2436H148.401L138.705 0.825223H128.458C126.12 0.825223 124.195 2.13181 123.37 4.19485L105.352 47.1748H117.937L120.413 40.2292H135.817L137.33 47.2436ZM123.989 30.808L130.315 13.4097L133.96 30.808H123.989ZM73.4441 0.825223L63.5416 47.2436H51.5072L61.4097 0.825223H73.4441Z" fill="url(#paint0_linear_139_1385)"/>
<defs>
<linearGradient id="paint0_linear_139_1385" x1="-0.074682" y1="23.9786" x2="148.464" y2="23.9786" gradientUnits="userSpaceOnUse">
<stop stop-color="#231F5C"/>
<stop offset="1" stop-color="#034EA2"/>
</linearGradient>
</defs>
</svg>
