<svg width="24" height="24" viewBox="0 0 24 24" fill="none" xmlns="http://www.w3.org/2000/svg">
<path d="M18.5964 12.8567C18.2731 12.4483 18.3656 12.2667 18.5964 11.9017C18.6006 11.8975 21.2698 8.20904 21.5448 6.95816L21.5465 6.95733C21.6832 6.50148 21.5465 6.16647 20.8857 6.16647H18.6989C18.1422 6.16647 17.8856 6.45398 17.748 6.77565C17.748 6.77565 16.6347 9.44075 15.0596 11.1683C14.5513 11.6675 14.3163 11.8275 14.0388 11.8275C13.9021 11.8275 13.6896 11.6675 13.6896 11.2116V6.95733C13.6896 6.41064 13.5337 6.16647 13.0729 6.16647H9.63443C9.28525 6.16647 9.07775 6.42147 9.07775 6.65898C9.07775 7.17733 9.86527 7.2965 9.94694 8.75489V11.9192C9.94694 12.6125 9.8211 12.74 9.54193 12.74C8.79857 12.74 6.99434 10.0641 5.92514 7.00149C5.7093 6.40731 5.49845 6.1673 4.9376 6.1673H2.75003C2.12584 6.1673 2 6.45481 2 6.77649C2 7.34484 2.74336 10.1708 5.45679 13.9042C7.26518 16.4527 9.81194 17.8335 12.1287 17.8335C13.5212 17.8335 13.6912 17.5269 13.6912 16.9993C13.6912 14.5643 13.5654 14.3342 14.2629 14.3342C14.5863 14.3342 15.143 14.4943 16.443 15.7235C17.9289 17.181 18.1731 17.8335 19.0048 17.8335H21.1915C21.8149 17.8335 22.1307 17.5269 21.949 16.9218C21.5332 15.6493 18.7231 13.0317 18.5964 12.8567Z" fill="#2E3A59"/>
</svg>
