<svg width="50" height="48" viewBox="0 0 50 48" fill="none" xmlns="http://www.w3.org/2000/svg">
<path d="M24.6982 0C28.5009 0 32.1188 0.871212 35.3654 2.42966C35.8745 2.65937 36.387 2.93429 36.8945 3.20946L34.6684 5.18135L31.3311 1.74267L25.5806 6.7855L22.1943 3.16305L11.6199 12.5622L18.39 19.9437L15.747 22.2356L22.4264 29.6171L19.7832 31.908L29.3375 42.4073L34.9923 37.2721L39.9107 42.7753C38.9359 43.5089 37.8693 44.244 36.7112 44.8848C33.1859 46.856 29.104 48 24.7451 48C11.3407 48 0.443574 37.2281 0.443574 23.9794C0.396238 10.8202 11.2953 0 24.6982 0ZM20.2452 22.5112L26.0426 17.376L31.238 23.1068L25.4395 28.2415L20.2452 22.5112ZM24.374 32.4145L30.1243 27.2339L35.3654 32.9642L29.5677 38.0996L24.374 32.4145ZM16.12 12.7462L21.9158 7.61101L27.11 13.3418L21.3123 18.4767L16.12 12.7462ZM26.7384 9.99448L31.0519 6.14351L34.9486 10.4075L30.6351 14.3039L26.7384 9.99448ZM34.438 27.6457L38.75 23.7945L42.6465 28.1029L38.3328 31.9565L34.438 27.6457ZM38.2404 36.3117L42.5541 32.4598L46.4475 36.7235L42.1354 40.6195L38.2404 36.3117ZM40.0031 16.5048L42.8781 13.9371L45.4744 16.7807L42.5998 19.3475L40.0031 16.5048ZM36.2928 8.02305L39.168 5.41033L41.7662 8.29822L38.8888 10.8657L36.2928 8.02305ZM43.6665 24.9873L46.5415 22.4198L49.1849 25.2624L46.2642 27.8292L43.6665 24.9873ZM30.7274 18.6143L35.0412 14.7631L38.9359 19.0261L34.6241 22.878L30.7274 18.6143Z" fill="#036CB5"/>
</svg>
