<svg width="69" height="48" viewBox="0 0 69 48" fill="none" xmlns="http://www.w3.org/2000/svg">
<path d="M44.3879 0C31.0209 0 20.3879 10.7848 20.3879 24C20.3879 37.3671 31.1728 48 44.3879 48C57.6031 48 68.3879 37.2152 68.3879 24C68.3879 10.7848 57.6031 0 44.3879 0ZM44.3879 32.962C39.5272 32.962 35.4259 28.8608 35.4259 24C35.4259 19.1392 39.5272 15.038 44.3879 15.038C49.2487 15.038 53.3499 19.1392 53.3499 24C53.1983 28.8608 49.2487 32.962 44.3879 32.962Z" fill="#8B3FFD"/>
<path d="M20.2349 6.9873V41.9239H11.7286L0.79187 6.9873H20.2349Z" fill="#8B3FFD"/>
</svg>
